<mxfile host="app.diagrams.net" modified="2024-03-12T02:53:01.308Z" agent="Mozilla/5.0 (Windows NT 10.0; Win64; x64) AppleWebKit/537.36 (KHTML, like Gecko) Chrome/122.0.0.0 Safari/537.36" etag="GbSlE-tUqHcS3oljehuY" version="24.0.1" type="device">
  <diagram name="Página-1" id="Riq7U1SYm6jFB2nFEcDX">
    <mxGraphModel dx="3092" dy="1994" grid="1" gridSize="10" guides="1" tooltips="1" connect="1" arrows="1" fold="1" page="1" pageScale="1" pageWidth="827" pageHeight="1169" math="0" shadow="0">
      <root>
        <mxCell id="0" />
        <mxCell id="1" parent="0" />
        <mxCell id="cXyHllTa7qxLCK9DRs5Z-1" value="PET_HOTEL" style="swimlane;childLayout=stackLayout;horizontal=1;startSize=50;horizontalStack=0;rounded=1;fontSize=14;fontStyle=0;strokeWidth=2;resizeParent=0;resizeLast=1;shadow=0;dashed=0;align=center;arcSize=4;whiteSpace=wrap;html=1;fillColor=#008a00;fontColor=#ffffff;strokeColor=#005700;" parent="1" vertex="1">
          <mxGeometry x="230" y="20" width="160" height="120" as="geometry" />
        </mxCell>
        <mxCell id="cXyHllTa7qxLCK9DRs5Z-2" value="ID_PET&lt;br&gt;DIRECCIÓN&lt;div&gt;TELEFONO&lt;/div&gt;&lt;div&gt;NOMBRE&lt;/div&gt;" style="align=left;strokeColor=none;fillColor=none;spacingLeft=4;fontSize=12;verticalAlign=top;resizable=0;rotatable=0;part=1;html=1;rounded=1;" parent="cXyHllTa7qxLCK9DRs5Z-1" vertex="1">
          <mxGeometry y="50" width="160" height="70" as="geometry" />
        </mxCell>
        <mxCell id="cXyHllTa7qxLCK9DRs5Z-3" value="RESERVA" style="swimlane;childLayout=stackLayout;horizontal=1;startSize=50;horizontalStack=0;rounded=1;fontSize=14;fontStyle=0;strokeWidth=2;resizeParent=0;resizeLast=1;shadow=0;dashed=0;align=center;arcSize=4;whiteSpace=wrap;html=1;fillColor=#008a00;fontColor=#ffffff;strokeColor=#005700;" parent="1" vertex="1">
          <mxGeometry x="-40" y="140" width="160" height="140" as="geometry" />
        </mxCell>
        <mxCell id="cXyHllTa7qxLCK9DRs5Z-4" value="ID_RESERVA&lt;br&gt;FECHA_INT&lt;br&gt;FECHA_SAL&lt;br&gt;PRECIO&lt;div&gt;&lt;br/&gt;&lt;/div&gt;" style="align=left;strokeColor=none;fillColor=none;spacingLeft=4;fontSize=12;verticalAlign=top;resizable=0;rotatable=0;part=1;html=1;rounded=1;" parent="cXyHllTa7qxLCK9DRs5Z-3" vertex="1">
          <mxGeometry y="50" width="160" height="90" as="geometry" />
        </mxCell>
        <mxCell id="cXyHllTa7qxLCK9DRs5Z-5" value="CLIENTE" style="swimlane;childLayout=stackLayout;horizontal=1;startSize=50;horizontalStack=0;rounded=1;fontSize=14;fontStyle=0;strokeWidth=2;resizeParent=0;resizeLast=1;shadow=0;dashed=0;align=center;arcSize=4;whiteSpace=wrap;html=1;fillColor=#008a00;fontColor=#ffffff;strokeColor=#005700;" parent="1" vertex="1">
          <mxGeometry x="-310" y="70" width="160" height="150" as="geometry" />
        </mxCell>
        <mxCell id="cXyHllTa7qxLCK9DRs5Z-6" value="ID_CLIENTE&lt;br&gt;NOMBRE&lt;br&gt;APELLIDO&lt;br&gt;DNI&lt;br&gt;N_TEL&lt;br&gt;DIRECCIÓN" style="align=left;strokeColor=none;fillColor=none;spacingLeft=4;fontSize=12;verticalAlign=top;resizable=0;rotatable=0;part=1;html=1;rounded=1;" parent="cXyHllTa7qxLCK9DRs5Z-5" vertex="1">
          <mxGeometry y="50" width="160" height="100" as="geometry" />
        </mxCell>
        <mxCell id="cXyHllTa7qxLCK9DRs5Z-7" value="CANINO" style="swimlane;childLayout=stackLayout;horizontal=1;startSize=50;horizontalStack=0;rounded=1;fontSize=14;fontStyle=0;strokeWidth=2;resizeParent=0;resizeLast=1;shadow=0;dashed=0;align=center;arcSize=4;whiteSpace=wrap;html=1;fillColor=#008a00;fontColor=#ffffff;strokeColor=#005700;" parent="1" vertex="1">
          <mxGeometry x="30" y="370" width="160" height="150" as="geometry" />
        </mxCell>
        <mxCell id="cXyHllTa7qxLCK9DRs5Z-8" value="ID_PERRO&lt;br&gt;NOMBRE&lt;br&gt;PESO&lt;br&gt;EDAD&lt;br&gt;TAMAÑO&lt;br&gt;&lt;br&gt;&lt;div&gt;&lt;br&gt;&lt;/div&gt;" style="align=left;strokeColor=none;fillColor=none;spacingLeft=4;fontSize=12;verticalAlign=top;resizable=0;rotatable=0;part=1;html=1;rounded=1;" parent="cXyHllTa7qxLCK9DRs5Z-7" vertex="1">
          <mxGeometry y="50" width="160" height="100" as="geometry" />
        </mxCell>
        <mxCell id="cXyHllTa7qxLCK9DRs5Z-9" value="HABITACIÓN_CANINA" style="swimlane;childLayout=stackLayout;horizontal=1;startSize=50;horizontalStack=0;rounded=1;fontSize=14;fontStyle=0;strokeWidth=2;resizeParent=0;resizeLast=1;shadow=0;dashed=0;align=center;arcSize=4;whiteSpace=wrap;html=1;fillColor=#008a00;fontColor=#ffffff;strokeColor=#005700;" parent="1" vertex="1">
          <mxGeometry x="220" y="260" width="160" height="120" as="geometry" />
        </mxCell>
        <mxCell id="cXyHllTa7qxLCK9DRs5Z-10" value="ID_HABI&lt;br&gt;NRO_HABITACION" style="align=left;strokeColor=none;fillColor=none;spacingLeft=4;fontSize=12;verticalAlign=top;resizable=0;rotatable=0;part=1;html=1;rounded=1;" parent="cXyHllTa7qxLCK9DRs5Z-9" vertex="1">
          <mxGeometry y="50" width="160" height="70" as="geometry" />
        </mxCell>
        <mxCell id="cXyHllTa7qxLCK9DRs5Z-11" value="FACTURA" style="swimlane;childLayout=stackLayout;horizontal=1;startSize=50;horizontalStack=0;rounded=1;fontSize=14;fontStyle=0;strokeWidth=2;resizeParent=0;resizeLast=1;shadow=0;dashed=0;align=center;arcSize=4;whiteSpace=wrap;html=1;fillColor=#008a00;fontColor=#ffffff;strokeColor=#005700;" parent="1" vertex="1">
          <mxGeometry x="-620" y="330" width="160" height="145" as="geometry" />
        </mxCell>
        <mxCell id="cXyHllTa7qxLCK9DRs5Z-12" value="ID_FACTURA&lt;div&gt;PRECIO_SERVICIO&lt;br&gt;IMPORTE&lt;/div&gt;&lt;div&gt;COSTO_TOTAL&lt;/div&gt;" style="align=left;strokeColor=none;fillColor=none;spacingLeft=4;fontSize=12;verticalAlign=top;resizable=0;rotatable=0;part=1;html=1;rounded=1;" parent="cXyHllTa7qxLCK9DRs5Z-11" vertex="1">
          <mxGeometry y="50" width="160" height="95" as="geometry" />
        </mxCell>
        <mxCell id="cXyHllTa7qxLCK9DRs5Z-14" value="TIENE" style="shape=rhombus;perimeter=rhombusPerimeter;whiteSpace=wrap;html=1;align=center;fillColor=#a0522d;fontColor=#ffffff;strokeColor=#6D1F00;rounded=1;" parent="1" vertex="1">
          <mxGeometry x="240" y="180" width="120" height="60" as="geometry" />
        </mxCell>
        <mxCell id="cXyHllTa7qxLCK9DRs5Z-15" value="" style="edgeStyle=entityRelationEdgeStyle;fontSize=12;html=1;endArrow=ERoneToMany;rounded=1;entryX=1;entryY=0.25;entryDx=0;entryDy=0;exitX=0.064;exitY=0.461;exitDx=0;exitDy=0;exitPerimeter=0;" parent="1" source="cXyHllTa7qxLCK9DRs5Z-14" target="cXyHllTa7qxLCK9DRs5Z-4" edge="1">
          <mxGeometry width="100" height="100" relative="1" as="geometry">
            <mxPoint x="200" y="300" as="sourcePoint" />
            <mxPoint x="300" y="200" as="targetPoint" />
          </mxGeometry>
        </mxCell>
        <mxCell id="cXyHllTa7qxLCK9DRs5Z-16" value="" style="edgeStyle=entityRelationEdgeStyle;fontSize=12;html=1;endArrow=ERoneToMany;rounded=1;exitX=0.5;exitY=1;exitDx=0;exitDy=0;entryX=0.469;entryY=-0.001;entryDx=0;entryDy=0;entryPerimeter=0;" parent="1" source="cXyHllTa7qxLCK9DRs5Z-14" target="cXyHllTa7qxLCK9DRs5Z-9" edge="1">
          <mxGeometry width="100" height="100" relative="1" as="geometry">
            <mxPoint x="280" y="400" as="sourcePoint" />
            <mxPoint x="380" y="300" as="targetPoint" />
          </mxGeometry>
        </mxCell>
        <mxCell id="cXyHllTa7qxLCK9DRs5Z-19" value="POSEE" style="shape=rhombus;perimeter=rhombusPerimeter;whiteSpace=wrap;html=1;align=center;fillColor=#a0522d;fontColor=#ffffff;strokeColor=#6D1F00;rounded=1;" parent="1" vertex="1">
          <mxGeometry y="300" width="120" height="60" as="geometry" />
        </mxCell>
        <mxCell id="cXyHllTa7qxLCK9DRs5Z-21" value="RECIBE" style="shape=rhombus;perimeter=rhombusPerimeter;whiteSpace=wrap;html=1;align=center;fillColor=#a0522d;fontColor=#ffffff;strokeColor=#6D1F00;rounded=1;" parent="1" vertex="1">
          <mxGeometry x="-350" y="260" width="120" height="60" as="geometry" />
        </mxCell>
        <mxCell id="cXyHllTa7qxLCK9DRs5Z-23" value="" style="edgeStyle=entityRelationEdgeStyle;fontSize=12;html=1;endArrow=ERmandOne;rounded=1;entryX=0.99;entryY=0.414;entryDx=0;entryDy=0;entryPerimeter=0;" parent="1" source="cXyHllTa7qxLCK9DRs5Z-21" target="ZCXjWQw7zIuTxbke0Wjz-2" edge="1">
          <mxGeometry width="100" height="100" relative="1" as="geometry">
            <mxPoint x="-286.72" y="320" as="sourcePoint" />
            <mxPoint x="-550" y="361.19000000000005" as="targetPoint" />
          </mxGeometry>
        </mxCell>
        <mxCell id="cXyHllTa7qxLCK9DRs5Z-24" value="HOSPEDA" style="shape=rhombus;perimeter=rhombusPerimeter;whiteSpace=wrap;html=1;align=center;fillColor=#a0522d;fontColor=#ffffff;strokeColor=#6D1F00;rounded=1;" parent="1" vertex="1">
          <mxGeometry x="250" y="400" width="120" height="60" as="geometry" />
        </mxCell>
        <mxCell id="cXyHllTa7qxLCK9DRs5Z-26" value="" style="edgeStyle=entityRelationEdgeStyle;fontSize=12;html=1;endArrow=ERmandOne;rounded=1;entryX=0.5;entryY=1;entryDx=0;entryDy=0;exitX=0.5;exitY=0;exitDx=0;exitDy=0;" parent="1" source="cXyHllTa7qxLCK9DRs5Z-24" target="cXyHllTa7qxLCK9DRs5Z-10" edge="1">
          <mxGeometry width="100" height="100" relative="1" as="geometry">
            <mxPoint x="250" y="580" as="sourcePoint" />
            <mxPoint x="350" y="480" as="targetPoint" />
          </mxGeometry>
        </mxCell>
        <mxCell id="cXyHllTa7qxLCK9DRs5Z-28" value="RAZA" style="swimlane;childLayout=stackLayout;horizontal=1;startSize=50;horizontalStack=0;rounded=1;fontSize=14;fontStyle=0;strokeWidth=2;resizeParent=0;resizeLast=1;shadow=0;dashed=0;align=center;arcSize=4;whiteSpace=wrap;html=1;fillColor=#fad9d5;strokeColor=#ae4132;" parent="1" vertex="1">
          <mxGeometry x="-220" y="330" width="160" height="120" as="geometry" />
        </mxCell>
        <mxCell id="cXyHllTa7qxLCK9DRs5Z-29" value="ID_RAZA&lt;br&gt;TIPO_RAZA&lt;br&gt;DESCRIPCION" style="align=left;strokeColor=none;fillColor=none;spacingLeft=4;fontSize=12;verticalAlign=top;resizable=0;rotatable=0;part=1;html=1;rounded=1;" parent="cXyHllTa7qxLCK9DRs5Z-28" vertex="1">
          <mxGeometry y="50" width="160" height="70" as="geometry" />
        </mxCell>
        <mxCell id="cXyHllTa7qxLCK9DRs5Z-30" value="VACUNAS" style="swimlane;childLayout=stackLayout;horizontal=1;startSize=50;horizontalStack=0;rounded=1;fontSize=14;fontStyle=0;strokeWidth=2;resizeParent=0;resizeLast=1;shadow=0;dashed=0;align=center;arcSize=4;whiteSpace=wrap;html=1;fillColor=#fad9d5;strokeColor=#ae4132;" parent="1" vertex="1">
          <mxGeometry x="-260" y="550" width="160" height="120" as="geometry" />
        </mxCell>
        <mxCell id="cXyHllTa7qxLCK9DRs5Z-31" value="ID_VACUNA&lt;br&gt;TIPO_VACUNA&lt;br&gt;DESCRIPCION" style="align=left;strokeColor=none;fillColor=none;spacingLeft=4;fontSize=12;verticalAlign=top;resizable=0;rotatable=0;part=1;html=1;rounded=1;" parent="cXyHllTa7qxLCK9DRs5Z-30" vertex="1">
          <mxGeometry y="50" width="160" height="70" as="geometry" />
        </mxCell>
        <mxCell id="cXyHllTa7qxLCK9DRs5Z-32" value="TARJETA_CAN" style="swimlane;childLayout=stackLayout;horizontal=1;startSize=50;horizontalStack=0;rounded=1;fontSize=14;fontStyle=0;strokeWidth=2;resizeParent=0;resizeLast=1;shadow=0;dashed=0;align=center;arcSize=4;whiteSpace=wrap;html=1;fillColor=#fad9d5;strokeColor=#ae4132;" parent="1" vertex="1">
          <mxGeometry x="100" y="545" width="160" height="150" as="geometry" />
        </mxCell>
        <mxCell id="cXyHllTa7qxLCK9DRs5Z-33" value="ID_TARJETA_CAN&lt;br&gt;ANTIPULGAS&lt;div&gt;DESPARACITACION&lt;/div&gt;&lt;div&gt;INDICACION&lt;br&gt;DESCRIPCION&lt;/div&gt;" style="align=left;strokeColor=none;fillColor=none;spacingLeft=4;fontSize=12;verticalAlign=top;resizable=0;rotatable=0;part=1;html=1;rounded=1;" parent="cXyHllTa7qxLCK9DRs5Z-32" vertex="1">
          <mxGeometry y="50" width="160" height="100" as="geometry" />
        </mxCell>
        <mxCell id="cXyHllTa7qxLCK9DRs5Z-37" value="HABITACIÓN_PREMIUM" style="swimlane;childLayout=stackLayout;horizontal=1;startSize=50;horizontalStack=0;rounded=1;fontSize=14;fontStyle=0;strokeWidth=2;resizeParent=0;resizeLast=1;shadow=0;dashed=0;align=center;arcSize=4;whiteSpace=wrap;html=1;fillColor=#fad9d5;strokeColor=#ae4132;" parent="1" vertex="1">
          <mxGeometry x="414" y="500" width="160" height="120" as="geometry" />
        </mxCell>
        <mxCell id="cXyHllTa7qxLCK9DRs5Z-38" value="ID_PREMIUN&lt;br&gt;DESCRIPCION" style="align=left;strokeColor=none;fillColor=none;spacingLeft=4;fontSize=12;verticalAlign=top;resizable=0;rotatable=0;part=1;html=1;rounded=1;" parent="cXyHllTa7qxLCK9DRs5Z-37" vertex="1">
          <mxGeometry y="50" width="160" height="70" as="geometry" />
        </mxCell>
        <mxCell id="cXyHllTa7qxLCK9DRs5Z-39" value="HABITACIÓN_ESTÁNDAR" style="swimlane;childLayout=stackLayout;horizontal=1;startSize=50;horizontalStack=0;rounded=1;fontSize=14;fontStyle=0;strokeWidth=2;resizeParent=0;resizeLast=1;shadow=0;dashed=0;align=center;arcSize=4;whiteSpace=wrap;html=1;fillColor=#fad9d5;strokeColor=#ae4132;" parent="1" vertex="1">
          <mxGeometry x="450" y="260" width="180" height="120" as="geometry" />
        </mxCell>
        <mxCell id="cXyHllTa7qxLCK9DRs5Z-40" value="ID_HAB_ESTANDAR&lt;br&gt;DESCRIPCIÓN" style="align=left;strokeColor=none;fillColor=none;spacingLeft=4;fontSize=12;verticalAlign=top;resizable=0;rotatable=0;part=1;html=1;rounded=1;" parent="cXyHllTa7qxLCK9DRs5Z-39" vertex="1">
          <mxGeometry y="50" width="180" height="70" as="geometry" />
        </mxCell>
        <mxCell id="sO-gODQ89wInr7B967ld-1" value="TIENE" style="shape=rhombus;perimeter=rhombusPerimeter;whiteSpace=wrap;html=1;align=center;fillColor=#a0522d;fontColor=#ffffff;strokeColor=#6D1F00;rounded=1;" parent="1" vertex="1">
          <mxGeometry x="-120" y="470" width="120" height="60" as="geometry" />
        </mxCell>
        <mxCell id="sO-gODQ89wInr7B967ld-8" value="" style="edgeStyle=entityRelationEdgeStyle;fontSize=12;html=1;endArrow=ERoneToMany;rounded=1;entryX=0.5;entryY=0;entryDx=0;entryDy=0;exitX=0;exitY=0.5;exitDx=0;exitDy=0;" parent="1" source="sO-gODQ89wInr7B967ld-1" target="cXyHllTa7qxLCK9DRs5Z-30" edge="1">
          <mxGeometry width="100" height="100" relative="1" as="geometry">
            <mxPoint x="-60" y="980" as="sourcePoint" />
            <mxPoint x="40" y="880" as="targetPoint" />
          </mxGeometry>
        </mxCell>
        <mxCell id="sO-gODQ89wInr7B967ld-9" value="" style="edgeStyle=entityRelationEdgeStyle;fontSize=12;html=1;endArrow=ERmandOne;rounded=1;entryX=0.75;entryY=1;entryDx=0;entryDy=0;exitX=0.5;exitY=0;exitDx=0;exitDy=0;" parent="1" source="sO-gODQ89wInr7B967ld-1" target="cXyHllTa7qxLCK9DRs5Z-29" edge="1">
          <mxGeometry width="100" height="100" relative="1" as="geometry">
            <mxPoint x="50" y="775" as="sourcePoint" />
            <mxPoint x="70" y="640" as="targetPoint" />
          </mxGeometry>
        </mxCell>
        <mxCell id="sO-gODQ89wInr7B967ld-17" value="TIENE" style="shape=rhombus;perimeter=rhombusPerimeter;whiteSpace=wrap;html=1;align=center;fillColor=#a0522d;fontColor=#ffffff;strokeColor=#6D1F00;rounded=1;" parent="1" vertex="1">
          <mxGeometry x="400" y="410" width="120" height="60" as="geometry" />
        </mxCell>
        <mxCell id="sO-gODQ89wInr7B967ld-18" value="" style="edgeStyle=entityRelationEdgeStyle;fontSize=12;html=1;endArrow=ERmandOne;rounded=1;entryX=1;entryY=0.25;entryDx=0;entryDy=0;exitX=0;exitY=0.5;exitDx=0;exitDy=0;" parent="1" source="sO-gODQ89wInr7B967ld-17" target="cXyHllTa7qxLCK9DRs5Z-10" edge="1">
          <mxGeometry width="100" height="100" relative="1" as="geometry">
            <mxPoint x="370" y="520" as="sourcePoint" />
            <mxPoint x="470" y="420" as="targetPoint" />
          </mxGeometry>
        </mxCell>
        <mxCell id="sO-gODQ89wInr7B967ld-19" value="" style="edgeStyle=entityRelationEdgeStyle;fontSize=12;html=1;endArrow=ERoneToMany;rounded=1;entryX=0.5;entryY=1;entryDx=0;entryDy=0;exitX=1;exitY=0.5;exitDx=0;exitDy=0;" parent="1" source="sO-gODQ89wInr7B967ld-17" target="cXyHllTa7qxLCK9DRs5Z-40" edge="1">
          <mxGeometry width="100" height="100" relative="1" as="geometry">
            <mxPoint x="530" y="580" as="sourcePoint" />
            <mxPoint x="630" y="480" as="targetPoint" />
          </mxGeometry>
        </mxCell>
        <mxCell id="sO-gODQ89wInr7B967ld-20" value="" style="edgeStyle=entityRelationEdgeStyle;fontSize=12;html=1;endArrow=ERoneToMany;rounded=1;entryX=0.5;entryY=0;entryDx=0;entryDy=0;exitX=0.5;exitY=1;exitDx=0;exitDy=0;" parent="1" source="sO-gODQ89wInr7B967ld-17" target="cXyHllTa7qxLCK9DRs5Z-37" edge="1">
          <mxGeometry width="100" height="100" relative="1" as="geometry">
            <mxPoint x="430" y="610" as="sourcePoint" />
            <mxPoint x="530" y="510" as="targetPoint" />
          </mxGeometry>
        </mxCell>
        <mxCell id="a4qj4KvQJw6X0IVw0Cyg-4" value="" style="edgeStyle=entityRelationEdgeStyle;fontSize=12;html=1;endArrow=ERmandOne;rounded=1;entryX=0.567;entryY=1.046;entryDx=0;entryDy=0;entryPerimeter=0;exitX=0.5;exitY=0;exitDx=0;exitDy=0;" parent="1" source="cXyHllTa7qxLCK9DRs5Z-14" target="cXyHllTa7qxLCK9DRs5Z-2" edge="1">
          <mxGeometry width="100" height="100" relative="1" as="geometry">
            <mxPoint x="300" y="240" as="sourcePoint" />
            <mxPoint x="400" y="140" as="targetPoint" />
          </mxGeometry>
        </mxCell>
        <mxCell id="a4qj4KvQJw6X0IVw0Cyg-5" value="" style="edgeStyle=entityRelationEdgeStyle;fontSize=12;html=1;endArrow=ERoneToMany;rounded=1;entryX=1.006;entryY=0.193;entryDx=0;entryDy=0;entryPerimeter=0;" parent="1" source="cXyHllTa7qxLCK9DRs5Z-24" target="cXyHllTa7qxLCK9DRs5Z-7" edge="1">
          <mxGeometry width="100" height="100" relative="1" as="geometry">
            <mxPoint x="300" y="470" as="sourcePoint" />
            <mxPoint x="400" y="370" as="targetPoint" />
          </mxGeometry>
        </mxCell>
        <mxCell id="a4qj4KvQJw6X0IVw0Cyg-6" value="" style="edgeStyle=entityRelationEdgeStyle;fontSize=12;html=1;endArrow=ERmandOne;rounded=1;entryX=0.75;entryY=1;entryDx=0;entryDy=0;exitX=0.5;exitY=0;exitDx=0;exitDy=0;" parent="1" source="a4qj4KvQJw6X0IVw0Cyg-7" target="cXyHllTa7qxLCK9DRs5Z-6" edge="1">
          <mxGeometry width="100" height="100" relative="1" as="geometry">
            <mxPoint x="-180" y="350" as="sourcePoint" />
            <mxPoint x="-80" y="250" as="targetPoint" />
          </mxGeometry>
        </mxCell>
        <mxCell id="a4qj4KvQJw6X0IVw0Cyg-7" value="TIENE" style="shape=rhombus;perimeter=rhombusPerimeter;whiteSpace=wrap;html=1;align=center;rounded=1;fillColor=#a0522d;fontColor=#ffffff;strokeColor=#6D1F00;" parent="1" vertex="1">
          <mxGeometry x="-200" y="240" width="120" height="60" as="geometry" />
        </mxCell>
        <mxCell id="a4qj4KvQJw6X0IVw0Cyg-8" value="" style="edgeStyle=entityRelationEdgeStyle;fontSize=12;html=1;endArrow=ERoneToMany;rounded=1;entryX=0;entryY=0.5;entryDx=0;entryDy=0;exitX=1;exitY=0.5;exitDx=0;exitDy=0;" parent="1" source="a4qj4KvQJw6X0IVw0Cyg-7" target="cXyHllTa7qxLCK9DRs5Z-3" edge="1">
          <mxGeometry width="100" height="100" relative="1" as="geometry">
            <mxPoint x="-180" y="350" as="sourcePoint" />
            <mxPoint x="-80" y="250" as="targetPoint" />
          </mxGeometry>
        </mxCell>
        <mxCell id="VWHLpHyRxGITjCQx6jqd-1" value="" style="edgeStyle=entityRelationEdgeStyle;fontSize=12;html=1;endArrow=ERoneToMany;rounded=1;entryX=0.5;entryY=1;entryDx=0;entryDy=0;exitX=0.5;exitY=0;exitDx=0;exitDy=0;" parent="1" source="cXyHllTa7qxLCK9DRs5Z-21" target="cXyHllTa7qxLCK9DRs5Z-6" edge="1">
          <mxGeometry width="100" height="100" relative="1" as="geometry">
            <mxPoint x="-110" y="600" as="sourcePoint" />
            <mxPoint x="-10" y="500" as="targetPoint" />
          </mxGeometry>
        </mxCell>
        <mxCell id="cXyHllTa7qxLCK9DRs5Z-18" value="" style="edgeStyle=entityRelationEdgeStyle;fontSize=12;html=1;endArrow=ERoneToMany;rounded=1;exitX=0.5;exitY=0;exitDx=0;exitDy=0;entryX=0.25;entryY=1;entryDx=0;entryDy=0;" parent="1" source="cXyHllTa7qxLCK9DRs5Z-19" target="cXyHllTa7qxLCK9DRs5Z-4" edge="1">
          <mxGeometry width="100" height="100" relative="1" as="geometry">
            <mxPoint x="70" y="600" as="sourcePoint" />
            <mxPoint x="170" y="500" as="targetPoint" />
          </mxGeometry>
        </mxCell>
        <mxCell id="VWHLpHyRxGITjCQx6jqd-5" value="" style="edgeStyle=entityRelationEdgeStyle;fontSize=12;html=1;endArrow=ERmandOne;rounded=1;entryX=0.405;entryY=0.004;entryDx=0;entryDy=0;entryPerimeter=0;exitX=0.5;exitY=1;exitDx=0;exitDy=0;" parent="1" source="cXyHllTa7qxLCK9DRs5Z-19" target="cXyHllTa7qxLCK9DRs5Z-7" edge="1">
          <mxGeometry width="100" height="100" relative="1" as="geometry">
            <mxPoint x="170" y="490" as="sourcePoint" />
            <mxPoint x="270" y="390" as="targetPoint" />
          </mxGeometry>
        </mxCell>
        <mxCell id="HC43j1IYwCYBXXp8rOH7-1" value="" style="edgeStyle=entityRelationEdgeStyle;fontSize=12;html=1;endArrow=ERmandOne;rounded=1;entryX=0;entryY=0;entryDx=0;entryDy=0;exitX=1;exitY=1;exitDx=0;exitDy=0;" parent="1" source="sO-gODQ89wInr7B967ld-1" target="cXyHllTa7qxLCK9DRs5Z-32" edge="1">
          <mxGeometry width="100" height="100" relative="1" as="geometry">
            <mxPoint x="60" y="850" as="sourcePoint" />
            <mxPoint x="140" y="790" as="targetPoint" />
          </mxGeometry>
        </mxCell>
        <mxCell id="HC43j1IYwCYBXXp8rOH7-3" value="" style="edgeStyle=entityRelationEdgeStyle;fontSize=12;html=1;endArrow=ERoneToMany;rounded=1;entryX=0;entryY=0.5;entryDx=0;entryDy=0;exitX=1;exitY=0;exitDx=0;exitDy=0;" parent="1" source="sO-gODQ89wInr7B967ld-1" target="cXyHllTa7qxLCK9DRs5Z-8" edge="1">
          <mxGeometry width="100" height="100" relative="1" as="geometry">
            <mxPoint x="60" y="590" as="sourcePoint" />
            <mxPoint x="140" y="790" as="targetPoint" />
          </mxGeometry>
        </mxCell>
        <mxCell id="HC43j1IYwCYBXXp8rOH7-4" value="POSEE" style="shape=rhombus;perimeter=rhombusPerimeter;whiteSpace=wrap;html=1;align=center;rounded=1;fillColor=#a0522d;fontColor=#ffffff;strokeColor=#6D1F00;" parent="1" vertex="1">
          <mxGeometry x="40" y="70" width="120" height="60" as="geometry" />
        </mxCell>
        <mxCell id="HC43j1IYwCYBXXp8rOH7-5" value="" style="edgeStyle=entityRelationEdgeStyle;fontSize=12;html=1;endArrow=ERoneToMany;rounded=1;entryX=0.5;entryY=0;entryDx=0;entryDy=0;exitX=0.5;exitY=1;exitDx=0;exitDy=0;" parent="1" source="HC43j1IYwCYBXXp8rOH7-4" target="cXyHllTa7qxLCK9DRs5Z-3" edge="1">
          <mxGeometry width="100" height="100" relative="1" as="geometry">
            <mxPoint x="40" y="290" as="sourcePoint" />
            <mxPoint x="140" y="190" as="targetPoint" />
          </mxGeometry>
        </mxCell>
        <mxCell id="HC43j1IYwCYBXXp8rOH7-6" value="" style="edgeStyle=entityRelationEdgeStyle;fontSize=12;html=1;endArrow=ERmandOne;rounded=1;exitX=0.5;exitY=0;exitDx=0;exitDy=0;" parent="1" source="HC43j1IYwCYBXXp8rOH7-4" target="HC43j1IYwCYBXXp8rOH7-7" edge="1">
          <mxGeometry width="100" height="100" relative="1" as="geometry">
            <mxPoint x="40" y="190" as="sourcePoint" />
            <mxPoint x="100" y="-60" as="targetPoint" />
          </mxGeometry>
        </mxCell>
        <mxCell id="HC43j1IYwCYBXXp8rOH7-7" value="HISTORIAL" style="swimlane;childLayout=stackLayout;horizontal=1;startSize=50;horizontalStack=0;rounded=1;fontSize=14;fontStyle=0;strokeWidth=2;resizeParent=0;resizeLast=1;shadow=0;dashed=0;align=center;arcSize=4;whiteSpace=wrap;html=1;fillColor=#008a00;strokeColor=#005700;fontColor=#ffffff;" parent="1" vertex="1">
          <mxGeometry x="-130" y="-30" width="160" height="120" as="geometry" />
        </mxCell>
        <mxCell id="HC43j1IYwCYBXXp8rOH7-8" value="ID_HISTORIAL&lt;div&gt;DESCRIPCION&lt;/div&gt;" style="align=left;strokeColor=none;fillColor=none;spacingLeft=4;fontSize=12;verticalAlign=top;resizable=0;rotatable=0;part=1;html=1;rounded=1;" parent="HC43j1IYwCYBXXp8rOH7-7" vertex="1">
          <mxGeometry y="50" width="160" height="70" as="geometry" />
        </mxCell>
        <mxCell id="ZCXjWQw7zIuTxbke0Wjz-1" value="COMPROBANTE" style="swimlane;childLayout=stackLayout;horizontal=1;startSize=50;horizontalStack=0;rounded=1;fontSize=14;fontStyle=0;strokeWidth=2;resizeParent=0;resizeLast=1;shadow=0;dashed=0;align=center;arcSize=4;whiteSpace=wrap;html=1;fillColor=#008a00;fontColor=#ffffff;strokeColor=#005700;" vertex="1" parent="1">
          <mxGeometry x="-550" y="120" width="160" height="120" as="geometry" />
        </mxCell>
        <mxCell id="ZCXjWQw7zIuTxbke0Wjz-2" value="ID_COMPROBANTE&lt;div&gt;ID_FACTURA&lt;/div&gt;&lt;div&gt;ID_BOLETA&lt;/div&gt;&lt;div&gt;ID_CLIENTE&lt;/div&gt;" style="align=left;strokeColor=none;fillColor=none;spacingLeft=4;fontSize=12;verticalAlign=top;resizable=0;rotatable=0;part=1;html=1;rounded=1;" vertex="1" parent="ZCXjWQw7zIuTxbke0Wjz-1">
          <mxGeometry y="50" width="160" height="70" as="geometry" />
        </mxCell>
        <mxCell id="ZCXjWQw7zIuTxbke0Wjz-3" value="BOLETA" style="swimlane;childLayout=stackLayout;horizontal=1;startSize=50;horizontalStack=0;rounded=1;fontSize=14;fontStyle=0;strokeWidth=2;resizeParent=0;resizeLast=1;shadow=0;dashed=0;align=center;arcSize=4;whiteSpace=wrap;html=1;fillColor=#008a00;fontColor=#ffffff;strokeColor=#005700;" vertex="1" parent="1">
          <mxGeometry x="-414" y="330" width="160" height="145" as="geometry" />
        </mxCell>
        <mxCell id="ZCXjWQw7zIuTxbke0Wjz-4" value="ID_BOLETA&lt;div&gt;PRECIO_SERVICIO&lt;/div&gt;&lt;div&gt;IMPORTE&lt;/div&gt;&lt;div&gt;COSTO_TOTAL&lt;/div&gt;" style="align=left;strokeColor=none;fillColor=none;spacingLeft=4;fontSize=12;verticalAlign=top;resizable=0;rotatable=0;part=1;html=1;rounded=1;" vertex="1" parent="ZCXjWQw7zIuTxbke0Wjz-3">
          <mxGeometry y="50" width="160" height="95" as="geometry" />
        </mxCell>
        <mxCell id="ZCXjWQw7zIuTxbke0Wjz-5" value="COLOR" style="swimlane;childLayout=stackLayout;horizontal=1;startSize=50;horizontalStack=0;rounded=1;fontSize=14;fontStyle=0;strokeWidth=2;resizeParent=0;resizeLast=1;shadow=0;dashed=0;align=center;arcSize=4;whiteSpace=wrap;html=1;fillColor=#fad9d5;strokeColor=#ae4132;" vertex="1" parent="1">
          <mxGeometry x="-90" y="565" width="160" height="120" as="geometry" />
        </mxCell>
        <mxCell id="ZCXjWQw7zIuTxbke0Wjz-6" value="ID_COLOR&lt;div&gt;COLOR&lt;/div&gt;" style="align=left;strokeColor=none;fillColor=none;spacingLeft=4;fontSize=12;verticalAlign=top;resizable=0;rotatable=0;part=1;html=1;rounded=1;" vertex="1" parent="ZCXjWQw7zIuTxbke0Wjz-5">
          <mxGeometry y="50" width="160" height="70" as="geometry" />
        </mxCell>
        <mxCell id="ZCXjWQw7zIuTxbke0Wjz-8" value="" style="edgeStyle=entityRelationEdgeStyle;fontSize=12;html=1;endArrow=ERmandOne;rounded=1;exitX=0.5;exitY=1;exitDx=0;exitDy=0;entryX=0.5;entryY=0;entryDx=0;entryDy=0;" edge="1" parent="1" source="sO-gODQ89wInr7B967ld-1" target="ZCXjWQw7zIuTxbke0Wjz-5">
          <mxGeometry width="100" height="100" relative="1" as="geometry">
            <mxPoint x="-160" y="810" as="sourcePoint" />
            <mxPoint x="40" y="670" as="targetPoint" />
          </mxGeometry>
        </mxCell>
        <mxCell id="ZCXjWQw7zIuTxbke0Wjz-11" value="SERVICIO" style="swimlane;childLayout=stackLayout;horizontal=1;startSize=50;horizontalStack=0;rounded=1;fontSize=14;fontStyle=0;strokeWidth=2;resizeParent=0;resizeLast=1;shadow=0;dashed=0;align=center;arcSize=4;whiteSpace=wrap;html=1;fillColor=#008a00;fontColor=#ffffff;strokeColor=#005700;" vertex="1" parent="1">
          <mxGeometry x="-500" y="575" width="160" height="120" as="geometry" />
        </mxCell>
        <mxCell id="ZCXjWQw7zIuTxbke0Wjz-12" value="ID_SERVICIO&lt;div&gt;TIPO_SERVICIO&lt;/div&gt;" style="align=left;strokeColor=none;fillColor=none;spacingLeft=4;fontSize=12;verticalAlign=top;resizable=0;rotatable=0;part=1;html=1;rounded=1;" vertex="1" parent="ZCXjWQw7zIuTxbke0Wjz-11">
          <mxGeometry y="50" width="160" height="70" as="geometry" />
        </mxCell>
        <mxCell id="ZCXjWQw7zIuTxbke0Wjz-13" value="COMPRUEBA" style="shape=rhombus;perimeter=rhombusPerimeter;whiteSpace=wrap;html=1;align=center;fillColor=#a0522d;fontColor=#ffffff;strokeColor=#6D1F00;rounded=1;" vertex="1" parent="1">
          <mxGeometry x="-560" y="260" width="120" height="60" as="geometry" />
        </mxCell>
        <mxCell id="ZCXjWQw7zIuTxbke0Wjz-16" value="" style="edgeStyle=entityRelationEdgeStyle;fontSize=12;html=1;endArrow=ERoneToMany;rounded=1;entryX=0.5;entryY=0;entryDx=0;entryDy=0;exitX=0;exitY=1;exitDx=0;exitDy=0;" edge="1" parent="1" source="ZCXjWQw7zIuTxbke0Wjz-13" target="cXyHllTa7qxLCK9DRs5Z-11">
          <mxGeometry width="100" height="100" relative="1" as="geometry">
            <mxPoint x="-700" y="460" as="sourcePoint" />
            <mxPoint x="-600" y="360" as="targetPoint" />
          </mxGeometry>
        </mxCell>
        <mxCell id="ZCXjWQw7zIuTxbke0Wjz-17" value="" style="edgeStyle=entityRelationEdgeStyle;fontSize=12;html=1;endArrow=ERoneToMany;rounded=1;entryX=0.5;entryY=0;entryDx=0;entryDy=0;exitX=1;exitY=0.5;exitDx=0;exitDy=0;" edge="1" parent="1" source="ZCXjWQw7zIuTxbke0Wjz-13" target="ZCXjWQw7zIuTxbke0Wjz-3">
          <mxGeometry width="100" height="100" relative="1" as="geometry">
            <mxPoint x="-470" y="450" as="sourcePoint" />
            <mxPoint x="-370" y="350" as="targetPoint" />
          </mxGeometry>
        </mxCell>
        <mxCell id="ZCXjWQw7zIuTxbke0Wjz-18" value="TIENE" style="shape=rhombus;perimeter=rhombusPerimeter;whiteSpace=wrap;html=1;align=center;fillColor=#a0522d;fontColor=#ffffff;strokeColor=#6D1F00;rounded=1;" vertex="1" parent="1">
          <mxGeometry x="-500" y="490" width="120" height="60" as="geometry" />
        </mxCell>
        <mxCell id="ZCXjWQw7zIuTxbke0Wjz-19" value="" style="edgeStyle=entityRelationEdgeStyle;fontSize=12;html=1;endArrow=ERoneToMany;rounded=1;entryX=0.5;entryY=1;entryDx=0;entryDy=0;exitX=0.5;exitY=0;exitDx=0;exitDy=0;" edge="1" parent="1" source="ZCXjWQw7zIuTxbke0Wjz-13" target="ZCXjWQw7zIuTxbke0Wjz-2">
          <mxGeometry width="100" height="100" relative="1" as="geometry">
            <mxPoint x="-670" y="430" as="sourcePoint" />
            <mxPoint x="-570" y="330" as="targetPoint" />
          </mxGeometry>
        </mxCell>
        <mxCell id="ZCXjWQw7zIuTxbke0Wjz-20" value="" style="edgeStyle=entityRelationEdgeStyle;fontSize=12;html=1;endArrow=ERoneToMany;rounded=1;entryX=0.5;entryY=1;entryDx=0;entryDy=0;exitX=0;exitY=0.5;exitDx=0;exitDy=0;" edge="1" parent="1" source="ZCXjWQw7zIuTxbke0Wjz-18" target="cXyHllTa7qxLCK9DRs5Z-12">
          <mxGeometry width="100" height="100" relative="1" as="geometry">
            <mxPoint x="-750" y="710" as="sourcePoint" />
            <mxPoint x="-650" y="610" as="targetPoint" />
          </mxGeometry>
        </mxCell>
        <mxCell id="ZCXjWQw7zIuTxbke0Wjz-21" value="" style="edgeStyle=entityRelationEdgeStyle;fontSize=12;html=1;endArrow=ERoneToMany;rounded=1;entryX=0.5;entryY=0;entryDx=0;entryDy=0;exitX=0.5;exitY=1;exitDx=0;exitDy=0;" edge="1" parent="1" source="ZCXjWQw7zIuTxbke0Wjz-18" target="ZCXjWQw7zIuTxbke0Wjz-11">
          <mxGeometry width="100" height="100" relative="1" as="geometry">
            <mxPoint x="-640" y="760" as="sourcePoint" />
            <mxPoint x="-540" y="660" as="targetPoint" />
          </mxGeometry>
        </mxCell>
        <mxCell id="ZCXjWQw7zIuTxbke0Wjz-22" value="" style="edgeStyle=entityRelationEdgeStyle;fontSize=12;html=1;endArrow=ERoneToMany;rounded=1;entryX=0.5;entryY=1;entryDx=0;entryDy=0;exitX=1;exitY=0.5;exitDx=0;exitDy=0;" edge="1" parent="1" source="ZCXjWQw7zIuTxbke0Wjz-18" target="ZCXjWQw7zIuTxbke0Wjz-4">
          <mxGeometry width="100" height="100" relative="1" as="geometry">
            <mxPoint x="-440" y="700" as="sourcePoint" />
            <mxPoint x="-340" y="600" as="targetPoint" />
          </mxGeometry>
        </mxCell>
      </root>
    </mxGraphModel>
  </diagram>
</mxfile>
